<?xml version="1.0" encoding="UTF-8"?>
<svg width="256px" height="256px" viewBox="0 0 256 256" version="1.1" xmlns="http://www.w3.org/2000/svg" xmlns:xlink="http://www.w3.org/1999/xlink" preserveAspectRatio="xMidYMid">
    <title>Spring Boot</title>
    <g>
        <path d="M38.9437824,35.879008 C89.5234256,-13.1200214 170.398168,-11.8028432 219.397197,39.0402357 C224.929346,31.8509881 231.204276,25.4034304 238.072926,19.6976771 C236.755764,33.2581771 232.958182,46.3660833 226.980306,58.0869207 C219.312389,71.0184991 209.536069,82.4752771 198.452489,92.0332357 C198.620661,92.5342928 198.620661,93.0353499 198.620661,93.536407 C198.620661,154.693038 149.705453,204.117135 89.1885824,204.117135 C73.424394,204.117135 58.4994824,200.486407 45.2186919,193.874063 C56.6382189,194.542178 68.0577459,192.724178 78.6045044,188.5905 C66.0155044,185.964407 54.9876499,177.438038 49.6230824,165.511038 C54.1518189,165.679211 58.6805554,165.343864 63.0412919,164.00635 C49.2882394,160.87635 39.1785824,148.949349 39.1785824,134.883692 L39.1785824,134.212035 C44.8838394,137.342035 51.5228394,139.328178 58.3309254,139.495407 C41.8950824,128.604407 36.5305149,106.248407 46.3069254,88.5701214 C61.0551499,107.418521 82.9045044,120.34952 107.595975,122.167521 C106.278813,116.886692 105.79631,111.437692 106.446368,106.08252 C108.600368,90.0472357 121.54631,77.1011214 137.413882,74.9791214 C154.3305,72.6891214 171.079046,81.5501214 177.885882,96.1201214 C185.19631,94.8041214 192.172926,92.3699881 198.620661,88.9042357 C195.322489,96.4548642 189.66031,102.902421 182.456926,107.082978 C189.325575,106.248407 196.026661,104.430407 202.392389,101.80635 C198.620661,108.504978 193.490139,114.428978 187.518182,119.439549 C187.686353,121.76955 187.686353,124.099549 187.686353,126.42955 C187.686353,193.874063 133.138182,256 62.7064489,256 C39.8464489,256 18.3202394,248.813692 0.0682394366,236.046407 C23.2837824,235.712978 45.8865584,226.347978 62.7064489,210.648978 C39.3470824,209.812978 19.1560704,191.879549 13.5227394,167.999549 C19.6571274,169.147978 25.9596499,169.315207 32.0940824,167.999549 C8.22758941,161.891549 -7.50356393,138.013692 -7.33539227,112.108978 L-7.33539227,111.437321 C4.28995607,116.886321 17.5676499,119.774893 30.6097394,119.439549 C5.10578941,102.567978 -5.34956393,69.7024991 8.22758941,42.2342357 C33.5784254,73.3570833 72.1074254,93.536407 115.574368,96.1201214 C114.928813,92.1969881 114.592926,88.2738547 114.592926,84.3507214 C114.592926,52.8093499 140.208661,27.0548642 171.582489,27.0548642 C187.854068,27.0548642 202.560561,33.7592357 212.834347,44.6480833 C225.07514,42.3580833 236.755764,37.6799881 247.365882,31.0681771 C242.067754,44.1470261 231.876389,54.7943499 219.061046,61.0736833 C231.372947,59.7576833 243.348926,56.2919309 254.570661,51.1133499 C247.533111,62.0542357 238.072926,71.5844833 227.127539,79.4393499 C227.127539,81.7293499 227.127539,84.0193499 227.127539,86.3093499 C227.127539,171.451692 159.140139,256 73.424394,256 C46.3069254,256 20.8574254,247.9795 0.0682394366,233.9145 C26.2944929,233.244978 51.5228394,222.353978 70.4604489,204.117135 C42.0635824,203.280635 17.5676499,182.834407 11.0886064,154.189978 C18.3202394,155.842978 25.7911499,156.178321 33.0773684,154.693035 C12.7416064,149.786978 -1.86023893,130.925407 -1.86023893,109.142978 L-1.86023893,108.471321 C11.0886064,114.764321 25.7911499,118.059549 40.4945824,117.724207 C11.0886064,97.9421214 0.0682394366,59.2566262 16.0832394,27.8906833 C42.7314489,62.8900547 84.5569254,86.3093499 131.488661,89.2389785 C130.507539,84.3507214 130.003097,79.2963499 130.003097,74.2420785 C130.003097,36.5506833 160.793539,5.77268332 198.284775,5.77268332 C217.747539,5.77268332 235.270661,13.9589785 247.365882,27.0548642 C261.564775,24.5992357 275.092389,19.5295547 287.187611,12.2421214 C281.38931,26.5538071 270.13931,38.3683499 256.052389,45.9855833 C269.580004,44.4817833 282.603454,40.7266833 294.866347,35.0477833 C287.019439,47.2003499 276.409561,57.9188071 264.146668,66.4192357 C264.146668,69.0328642 264.146668,71.6464928 264.146668,74.2601214 C264.146668,173.941692 184.214775,256 85.3696499,256 C53.8361499,256 24.0993684,246.7635 0.0682394366,230.7845 C30.4412394,229.9795 59.6474824,217.3435 81.5881499,196.5615 C48.1385824,195.7245 19.4908394,172.1205 12.0737394,139.4955 C20.6889254,140.9995 29.4606919,141.3345 38.0647394,139.8305 C14.1797394,134.0875 -3.00856393,112.1095 -3.00856393,86.8105 L-3.00856393,86.1385 C12.0737394,93.3715 29.4606919,97.1025 46.6417684,96.7675 C12.5731499,73.5245 0.0682394366,29.0385 18.8212964,-6.0175 C49.9579254,33.5925 97.9896499,60.0695 152.008661,63.3705 C150.85931,57.5835 150.35486,51.6305 150.35486,45.6775 C150.35486,1.9715 185.700661,-33.5425 229.218661,-33.5425 C251.916661,-33.5425 272.434775,-24.1775 286.633668,-9.1475 C303.012389,-12.1115 318.55014,-17.8545 332.581661,-26.1635 C325.854775,-9.8195 313.083454,3.3075 297.038661,11.9075 C312.579004,10.2355 327.615139,5.9375 341.646661,-0.3055 C332.413489,13.7915 320.486347,25.8895 306.622389,35.7225 C306.622389,38.6865 306.622389,41.6505 306.622389,44.6145 C306.622389,159.4315 213.648661,256 98.6575164,256 C61.8909254,256 27.5651499,245.2795 0.0682394366,227.0125" fill="#6DB33F"></path>
    </g>
</svg>
