<?xml version="1.0" encoding="UTF-8"?>
<svg width="256px" height="256px" viewBox="0 0 256 256" version="1.1" xmlns="http://www.w3.org/2000/svg" xmlns:xlink="http://www.w3.org/1999/xlink" preserveAspectRatio="xMidYMid">
    <title>Spring Boot</title>
    <g>
        <path d="M128,0 C57.28,0 0,57.28 0,128 L0,128 C0,198.72 57.28,256 128,256 L128,256 C198.72,256 256,198.72 256,128 L256,128 C256,57.28 198.72,0 128,0 L128,0 Z" fill="#1B1F23"></path>
        <path d="M204.8,188.4 C201.6,190.4 184,200 152.8,200 C124,200 98.4,192.8 76,176.8 C120,172 156,142.4 168,104.8 C161.6,124 142.4,142.4 116,156 C89.6,169.6 65.6,172.8 65.6,172.8 C65.6,172.8 76.8,184 96.8,192 C78.4,194.4 64,192 64,192 C64,192 81.6,222.4 128.8,222.4 C176,222.4 204.8,188.4 204.8,188.4 L204.8,188.4 Z" fill="#6DB33F"></path>
        <path d="M173.6,128.8 C180.8,104.8 177.6,84 171.2,68.8 C184,84 193.6,108 193.6,132 C193.6,168.8 169.6,200 136.8,212 C96.8,227.2 59.2,211.2 46.4,204.8 C52,208.8 72,220 92.8,220 C113.6,220 155.2,204 173.6,168.8 C177.6,156 177.6,142.4 173.6,128.8 L173.6,128.8 Z" fill="#6DB33F"></path>
        <path d="M184.8,164 C184.8,164 193.6,132 168.8,100 C144,68 104.8,56.8 89.6,72 C74.4,87.2 84.8,128 84.8,128 C84.8,128 69.6,120.8 65.6,100 C62.4,79.2 72,44 97.6,32.8 C156.8,8.8 196,52.8 204.8,68.8 C216.8,92.8 214.4,128.8 214.4,128.8 L184.8,164 L184.8,164 Z" fill="#6DB33F"></path>
    </g>
</svg>
